ffmpeg version 3.4.6-0ubuntu0.18.04.1 Copyright (c) 2000-2019 the FFmpeg developers
  built with gcc 7 (Ubuntu 7.3.0-16ubuntu3)
  configuration: --prefix=/usr --extra-version=0ubuntu0.18.04.1 --toolchain=hardened --libdir=/usr/lib/x86_64-linux-gnu --incdir=/usr/include/x86_64-linux-gnu --enable-gpl --disable-stripping --enable-avresample --enable-avisynth --enable-gnutls --enable-ladspa --enable-libass --enable-libbluray --enable-libbs2b --enable-libcaca --enable-libcdio --enable-libflite --enable-libfontconfig --enable-libfreetype --enable-libfribidi --enable-libgme --enable-libgsm --enable-libmp3lame --enable-libmysofa --enable-libopenjpeg --enable-libopenmpt --enable-libopus --enable-libpulse --enable-librubberband --enable-librsvg --enable-libshine --enable-libsnappy --enable-libsoxr --enable-libspeex --enable-libssh --enable-libtheora --enable-libtwolame --enable-libvorbis --enable-libvpx --enable-libwavpack --enable-libwebp --enable-libx265 --enable-libxml2 --enable-libxvid --enable-libzmq --enable-libzvbi --enable-omx --enable-openal --enable-opengl --enable-sdl2 --enable-libdc1394 --enable-libdrm --enable-libiec61883 --enable-chromaprint --enable-frei0r --enable-libopencv --enable-libx264 --enable-shared
  libavutil      55. 78.100 / 55. 78.100
  libavcodec     57.107.100 / 57.107.100
  libavformat    57. 83.100 / 57. 83.100
  libavdevice    57. 10.100 / 57. 10.100
  libavfilter     6.107.100 /  6.107.100
  libavresample   3.  7.  0 /  3.  7.  0
  libswscale      4.  8.100 /  4.  8.100
  libswresample   2.  9.100 /  2.  9.100
  libpostproc    54.  7.100 / 54.  7.100
Input #0, image2pipe, from 'pipe:':
  Duration: N/A, bitrate: N/A
    Stream #0:0: Video: ppm, rgb24, 320x240, 20 fps, 20 tbr, 20 tbn, 20 tbc
Stream mapping:
  Stream #0:0 -> #0:0 (ppm (native) -> h264 (libx264))
[libx264 @ 0x564f26c9ff40] using cpu capabilities: MMX2 SSE2Fast SSSE3 SSE4.2 AVX FMA3 BMI2 AVX2
[libx264 @ 0x564f26c9ff40] profile High, level 1.3
[libx264 @ 0x564f26c9ff40] 264 - core 152 r2854 e9a5903 - H.264/MPEG-4 AVC codec - Copyleft 2003-2017 - http://www.videolan.org/x264.html - options: cabac=1 ref=3 deblock=1:0:0 analyse=0x3:0x113 me=hex subme=7 psy=1 psy_rd=1.00:0.00 mixed_ref=1 me_range=16 chroma_me=1 trellis=1 8x8dct=1 cqm=0 deadzone=21,11 fast_pskip=1 chroma_qp_offset=-2 threads=1 lookahead_threads=1 sliced_threads=0 nr=0 decimate=1 interlaced=0 bluray_compat=0 constrained_intra=0 bframes=3 b_pyramid=2 b_adapt=1 b_bias=0 direct=1 weightb=1 open_gop=0 weightp=2 keyint=250 keyint_min=20 scenecut=40 intra_refresh=0 rc_lookahead=40 rc=abr mbtree=1 bitrate=400 ratetol=1.0 qcomp=0.60 qpmin=0 qpmax=69 qpstep=4 ip_ratio=1.40 aq=1:1.00
Output #0, mp4, to './mission_records/d9406f9c-0b88-4ac4-9337-302639640597/video.mp4':
  Metadata:
    encoder         : Lavf57.83.100
    Stream #0:0: Video: h264 (libx264) (avc1 / 0x31637661), yuv420p, 320x240, q=-1--1, 400 kb/s, 20 fps, 10240 tbn, 20 tbc
    Metadata:
      encoder         : Lavc57.107.100 libx264
    Side data:
      cpb: bitrate max/min/avg: 0/0/400000 buffer size: 0 vbv_delay: -1
frame=   31 fps=0.0 q=0.0 size=       0kB time=00:00:00.00 bitrate=N/A speed=   0x    frame=   40 fps= 39 q=0.0 size=       0kB time=00:00:00.00 bitrate=N/A speed=   0x    frame=   49 fps= 31 q=24.0 size=       0kB time=00:00:00.25 bitrate=   1.5kbits/s speed=0.16x    frame=   58 fps= 28 q=26.0 size=       0kB time=00:00:00.70 bitrate=   0.5kbits/s speed=0.336x    frame=   67 fps= 26 q=27.0 size=       0kB time=00:00:01.15 bitrate=   0.3kbits/s speed=0.44x    frame=   75 fps= 24 q=27.0 size=       0kB time=00:00:01.55 bitrate=   0.2kbits/s speed=0.495x    frame=   81 fps= 20 q=28.0 Lsize=     210kB time=00:00:03.90 bitrate= 440.8kbits/s speed=0.958x    
video:209kB audio:0kB subtitle:0kB other streams:0kB global headers:0kB muxing overhead: 0.647270%
[libx264 @ 0x564f26c9ff40] frame I:4     Avg QP:20.25  size:  4040
[libx264 @ 0x564f26c9ff40] frame P:63    Avg QP:21.83  size:  2654
[libx264 @ 0x564f26c9ff40] frame B:14    Avg QP:22.84  size:  2105
[libx264 @ 0x564f26c9ff40] consecutive B-frames: 72.8%  9.9%  7.4%  9.9%
[libx264 @ 0x564f26c9ff40] mb I  I16..4: 35.5% 56.4%  8.1%
[libx264 @ 0x564f26c9ff40] mb P  I16..4: 21.1% 32.8%  4.3%  P16..4: 20.4%  5.4%  4.5%  0.0%  0.0%    skip:11.4%
[libx264 @ 0x564f26c9ff40] mb B  I16..4:  8.5% 12.3%  1.6%  B16..8: 28.9%  7.1%  2.6%  direct:15.5%  skip:23.5%  L0:51.1% L1:43.1% BI: 5.8%
[libx264 @ 0x564f26c9ff40] final ratefactor: 22.48
[libx264 @ 0x564f26c9ff40] 8x8 transform intra:56.3% inter:71.4%
[libx264 @ 0x564f26c9ff40] coded y,uvDC,uvAC intra: 44.7% 25.8% 2.9% inter: 18.6% 25.4% 0.1%
[libx264 @ 0x564f26c9ff40] i16 v,h,dc,p: 13% 56% 10% 20%
[libx264 @ 0x564f26c9ff40] i8 v,h,dc,ddl,ddr,vr,hd,vl,hu:  5% 24% 43%  4%  5%  3%  7%  3%  7%
[libx264 @ 0x564f26c9ff40] i4 v,h,dc,ddl,ddr,vr,hd,vl,hu:  7% 33% 26%  5%  7%  4%  9%  3%  7%
[libx264 @ 0x564f26c9ff40] i8c dc,h,v,p: 56% 36%  1%  6%
[libx264 @ 0x564f26c9ff40] Weighted P-Frames: Y:25.4% UV:20.6%
[libx264 @ 0x564f26c9ff40] ref P L0: 64.6%  5.7% 17.0% 11.1%  1.7%
[libx264 @ 0x564f26c9ff40] ref B L0: 85.9% 13.1%  1.0%
[libx264 @ 0x564f26c9ff40] ref B L1: 98.4%  1.6%
[libx264 @ 0x564f26c9ff40] kb/s:420.36
